<svg xmlns="http://www.w3.org/2000/svg" viewBox="0 0 24 24" fill="currentColor" class="icon-sun">
  <circle cx="12" cy="12" r="5" />
  <line x1="12" y1="1" x2="12" y2="4" stroke="currentColor" stroke-width="2" />
  <line x1="12" y1="20" x2="12" y2="23" stroke="currentColor" stroke-width="2" />
  <line x1="4.22" y1="4.22" x2="5.64" y2="5.64" stroke="currentColor" stroke-width="2" />
  <line x1="18.36" y1="18.36" x2="19.78" y2="19.78" stroke="currentColor" stroke-width="2" />
  <line x1="1" y1="12" x2="4" y2="12" stroke="currentColor" stroke-width="2" />
  <line x1="20" y1="12" x2="23" y2="12" stroke="currentColor" stroke-width="2" />
  <line x1="4.22" y1="19.78" x2="5.64" y2="18.36" stroke="currentColor" stroke-width="2" />
  <line x1="18.36" y1="5.64" x2="19.78" y2="4.22" stroke="currentColor" stroke-width="2" />
</svg>

<svg xmlns="http://www.w3.org/2000/svg" viewBox="0 0 24 24" fill="currentColor" class="icon-moon">
  <path d="M21.752 15.002A9.718 9.718 0 0112.998 22C7.477 22 3 17.523 3 12.002 3 7.477 7.477 3 12.998 3c.34 0 .678.02 1.014.058a7.5 7.5 0 107.74 11.944z" />
</svg>